<svg viewBox="0 0 128 128" xmlns="http://www.w3.org/2000/svg" id="technology">
  <defs>
  <style>
    @media(prefers-color-scheme: dark) {
      :root { --color-logo-shape: #000000; --color-logo-base: #ffffff; }
    }
    body[data-color-scheme="dark"] {
      --color-logo-shape: #000000; --color-logo-base: #ffffff;
    }
  </style>
  <path id="surface" d="m 6,47 l 58,-47 58,47 -58,45 z"/>
  <path id="strut"   d="m 6,47 v 12 l 58,45 v -12 z"/>
  <path id="shape"   d="
    m  61.7, 47.7
    c   4.7, -1.8   10.4,-6.5   12.6,-10.3    2.7, -4.6   -1.1,-3.6     -4,-2.4 l  1.3,  -2
    c   0.4, -0.1    3.1,-0.8    4.4,  0.3 l 17.3, 14.6
    c   1.3,  1.1    0.3, 3.9   -0.3,  4.9   -2.2,  4.3     -8, 9.5    -13,11.6   -1.3, 0.5   -4.6,  1.6   -5.9, 0.4 l -17.6,-15.6
    c  -1.7, -1.6   -0.4,-5.3    4.4, -9.7    0.7,    0    1.3, 0.2    1.9, 0.4   -5.1, 4.5   -8.4, 10.7   -1.1, 7.8 z
    m -12.2, -8.6    4.6, 0.3     -1, 21.8 c -0.1,  2.7     -5, 2.5   -4.8,-0.3 z
    m    12,-12.1    1.9,-0.6    3.1,  8.3 z
    m   9.4, -0.5      2, 0.7   -4.6,  7.4 z
    m -21.9,  5.8    5.7, 0.3
    c   0.1,    0    0.3, 0.1    0.3,  0.3 l -0.1,  0.6
    c   6.3,  0.9   11.6, 3.5     15,  6.9   -4.3, -1.8   -9.4,-3.1  -15.1,-3.7 v  1.5
    c     0,  0.2   -0.1, 0.3   -0.4,  0.2 l -5.6, -0.2
    c  -0.2,    0   -0.4,-0.2   -0.4, -0.4 l  0.1, -1.4
    c  -5.7,    0    -11, 0.8  -15.6,  2.2    3.8, -3.2    9.4,-5.2   15.8,-5.5 l  0.1,-0.5
    c     0, -0.3    0.2,-0.3    0.2, -0.3 z
    m  38.9, 17.7 c  0.5,-0.4    1.4, -0.3      2,  0.1    0.5, 0.5    0.5, 1.2      0, 1.7   -0.5,  0.4   -1.3, 0.4   -1.8, -0.1  -0.7,-0.5 -0.7,-1.2 -0.2,-1.7 z
    m  -5.6, -4.8 c  0.4,-0.4    1.3, -0.4    1.9,  0.1    0.5, 0.4    0.5, 1.1    0.1, 1.6   -0.6,  0.5   -1.4, 0.4     -2, -0.1  -0.5,-0.4 -0.6,-1.2    0,-1.6 z
    m  -5.9,   -5 c  0.5,-0.5    1.4, -0.4    1.9,  0.1    0.6, 0.4    0.6, 1.2    0.1, 1.5   -0.6,  0.5   -1.4, 0.5   -1.9,    0  -0.6,-0.4 -0.6,-1.1 -0.1,-1.6 z
    m  11.7,  5.4 c -0.7,   5  -10.5, 13.7  -16.8, 14.6 l  3.9, 3.5 c  2.4, 1.3   12.9,-5.1   16.3,-11.6    0.5,-1.2    1.4, -2.5     0,-3.7 z
    m -18.6, 12.9 c  2.4, 1.4   12.8, -4.9   16.3,-11.3    0.8,-1.6    1.1,-2.8    0.4,-3.2 l -3.7, -3.2 c -0.8, 4.9  -10.6, 13.5 -16.9,14.3 z
    m  -5.7, -5.1 c  2.4, 1.4   12.8, -4.6   16.3,  -11    0.9,-1.6    1.1,-2.8    0.6,-3.2 l -3.9, -3.3 c   -1, 4.9  -10.9, 13.2 -17.1,  14 z
  "/>
  </defs>
  <use href="#strut" fill="#9ee0ff"/>
  <use href="#strut" fill="#6bd0ff" y="12"/>
  <use href="#strut" fill="#38c0ff" y="24"/>
  <g transform="matrix(-1 0 0 1 128 0)">
    <use href="#strut" fill="#f29eff"/>
    <use href="#strut" fill="#eb6bff" y="12"/>
    <use href="#strut" fill="#e438ff" y="24"/>
  </g>
  <use href="#surface" style="fill: var(--color-logo-base, #000000);"/>
  <use href="#shape" style="fill: var(--color-logo-shape, #ffffff);"/>
</svg>
