<svg viewBox="0 0 128 128" xmlns="http://www.w3.org/2000/svg" id="technology">
  <defs>
  <style>
    @media(prefers-color-scheme:dark){:root{--color-logo-shape:#000;--color-logo-base:#fff}}
    body[data-color-scheme="dark"]{--color-logo-shape:#000;--color-logo-base:#fff}
  </style>
  <path id="d" d="M6,47l58-47,58,47-58,45z" />
  <path id="s" d="M6,47v12l58,45v-12z" />
  <path id="h" d="m61.6,47.9c5.1-2,11.3-7.1,13.7-11.2,2.9-5-1.3-3.9-4.4-2.6l1.4-2.2c.5-.1,3.4-.9,4.8.3l18.8,15.9c1.4,1.2.3,4.2-.3,5.3-2.4,4.7-8.7,10.3-14.2,12.6-1.4.6-5,1.7-6.4.5l-19.1-17c-1.9-1.7-.4-5.8,4.8-10.6.7.1,1.4.3,2.1.5-5.6,4.9-9.2,11.6-1.2,8.5zm-13.3-9.4,5,.3-1.1,23.7c-.1,3-5.4,2.7-5.2-.3zm13-13.1,2.1-.7,3.4,9zm10.2-.6,2.2.8-5,8zm-23.7,6.3,6.1.3c.2,0,.4.2.4.4l-.1.6c6.8,1,12.6,3.8,16.3,7.5-4.7-1.9-10.3-3.3-16.4-4l-.1,1.6c0,.2-.1.4-.4.3l-6.1-.3c-.2,0-.4-.2-.4-.4l.1-1.5c-6.2,0-12,.8-17,2.4,4.2-3.5,10.3-5.7,17.2-6l.1-.6c0-.3.3-.3.3-.3zm42.2,19.3c.6-.5,1.5-.4,2.2.1.6.5.6,1.3,0,1.8-.5.5-1.4.5-2-.1-.7-.5-.7-1.3-.2-1.8zm-6.1-5.3c.5-.4,1.5-.4,2.1.1.6.5.6,1.3.1,1.8-.6.5-1.5.4-2.1-.1-.6-.5-.7-1.3-.1-1.8zm-6.4-5.4c.6-.5,1.5-.4,2.1.1.6.5.6,1.3.1,1.7-.6.5-1.5.5-2.1,0-.6-.5-.6-1.3-.1-1.8zm12.8,5.9c-.8,5.4-11.5,14.9-18.3,15.8l4.2,3.8c2.6,1.5,14-5.5,17.7-12.6.6-1.3,1.6-2.7.1-4zm-20.3,14c2.6,1.5,13.9-5.3,17.7-12.3.9-1.7,1.2-3,.5-3.5l-4-3.4c-.9,5.3-11.6,14.6-18.4,15.5zm-6.2-5.5c2.6,1.5,14-5.1,17.8-12,.9-1.7,1.2-3,.6-3.5l-4.2-3.6c-1.1,5.4-11.9,14.4-18.6,15.2z" />
  </defs>
  <use href="#s" fill="#9ee0ff"/>
  <use href="#s" fill="#6bd0ff" y="12"/>
  <use href="#s" fill="#38c0ff" y="24"/>
  <g transform="matrix(-1 0 0 1 128 0)">
    <use href="#s" fill="#f29eff"/>
    <use href="#s" fill="#eb6bff" y="12"/>
    <use href="#s" fill="#e438ff" y="24"/>
  </g>
  <use href="#d" style="fill:var(--color-logo-base,#000)"/>
  <use href="#h" style="fill:var(--color-logo-shape,#fff)"/>
</svg>

