<svg viewBox="0 0 128 128" xmlns="http://www.w3.org/2000/svg" id="technology">
  <defs>
  <style>
    @media(prefers-color-scheme:dark){:root{--color-logo-shape:#000;--color-logo-base:#fff}}
    body[data-color-scheme="dark"]{--color-logo-shape:#000;--color-logo-base:#fff}
  </style>
  <path id="d" d="M6,47l58-47,58,47-58,45z" />
  <path id="s" d="M6,47v12l58,45v-12z" />
  <path id="h" d="m61.7,47.7c4.7-1.8,10.4-6.5,12.6-10.3,2.7-4.6-1.1-3.6-4-2.4l1.3-2c.4-.1,3.1-.8,4.4.3l17.3,14.6c1.3,1.1.3,3.9-.3,4.9-2.2,4.3-8,9.5-13,11.6-1.3.5-4.6,1.6-5.9.4l-17.6-15.6c-1.7-1.6-.4-5.3,4.4-9.7.7,0,1.3.2,1.9.4-5.1,4.5-8.4,10.7-1.1,7.8zm-12.2-8.6,4.6.3-1,21.8c-.1,2.7-5,2.5-4.8-.3zm12-12.1,1.9-.6,3.1,8.3zm9.4-.5,2,.7-4.6,7.4zm-21.9,5.8,5.7.3c.1,0,.3.1.3.3l-.1.6c6.3.9,11.6,3.5,15,6.9-4.3-1.8-9.4-3.1-15.1-3.7v1.5c0,.2-.1.3-.4.2l-5.6-.2c-.2,0-.4-.2-.4-.4l.1-1.4c-5.7,0-11,.8-15.6,2.2,3.8-3.2,9.4-5.2,15.8-5.5l.1-.5c0-.3.2-.3.2-.3zm38.9,17.7c.5-.4,1.4-.3,2,.1.5.5.5,1.2,0,1.7-.5.4-1.3.4-1.8-.1-.7-.5-.7-1.2-.2-1.7zm-5.6-4.8c.4-.4,1.3-.4,1.9.1.5.4.5,1.1.1,1.6-.6.5-1.4.4-2-.1-.5-.4-.6-1.2,0-1.6zm-5.9-5c.5-.5,1.4-.4,1.9.1.6.4.6,1.2.1,1.5-.6.5-1.4.5-1.9,0-.6-.4-.6-1.1-.1-1.6zm11.7,5.4c-.7,5-10.5,13.7-16.8,14.6l3.9,3.5c2.4,1.3,12.9-5.1,16.3-11.6.5-1.2,1.4-2.5,0-3.7zm-18.6,12.9c2.4,1.4,12.8-4.9,16.3-11.3.8-1.6,1.1-2.8.4-3.2l-3.7-3.2c-.8,4.9-10.6,13.5-16.9,14.3zm-5.7-5.1c2.4,1.4,12.8-4.6,16.3-11,.9-1.6,1.1-2.8.6-3.2l-3.9-3.3c-1,4.9-10.9,13.2-17.1,14z" />
  </defs>
  <use href="#s" fill="#9ee0ff"/>
  <use href="#s" fill="#6bd0ff" y="12"/>
  <use href="#s" fill="#38c0ff" y="24"/>
  <g transform="matrix(-1 0 0 1 128 0)">
    <use href="#s" fill="#f29eff"/>
    <use href="#s" fill="#eb6bff" y="12"/>
    <use href="#s" fill="#e438ff" y="24"/>
  </g>
  <use href="#d" style="fill:var(--color-logo-base,#000)"/>
  <use href="#h" style="fill:var(--color-logo-shape,#fff)"/>
</svg>

